<svg width="20" height="17" viewBox="0 0 20 17" fill="none" xmlns="http://www.w3.org/2000/svg">
<path fill-rule="evenodd" clip-rule="evenodd" d="M2.15789 4.9C2.15789 2.74609 3.99589 1 6.26316 1C7.39094 1 8.41272 1.43263 9.15398 2.13093C9.6155 2.04497 10.092 2 10.5789 2C11.0659 2 11.5424 2.04497 12.0039 2.13093C12.7452 1.43263 13.767 1 14.8947 1C17.162 1 19 2.74609 19 4.9C19 5.97139 18.5446 6.94208 17.8095 7.64627C17.9 8.08472 17.9474 8.53741 17.9474 9C17.9474 12.866 14.6484 16 10.5789 16C9.00507 16 7.54675 15.5311 6.35006 14.733C5.8522 15.1521 5.33972 15.4768 4.82075 15.6917C4.20499 15.9467 3.56169 16.0539 2.92575 15.9567C2.28523 15.8589 1.70724 15.5618 1.21582 15.095C0.928061 14.8216 0.928061 14.3784 1.21582 14.105C1.50357 13.8317 1.97011 13.8317 2.25787 14.105C2.55591 14.3882 2.85951 14.5286 3.15977 14.5745C3.46462 14.6211 3.82133 14.5783 4.23188 14.4083C4.54542 14.2785 4.87854 14.0789 5.22296 13.8072C4.84538 13.4277 4.5121 13.0082 4.23093 12.5561L4.21781 12.535L4.20627 12.513C3.79001 11.7221 3.80587 10.8574 4.19073 10.1709C4.57971 9.4771 5.33135 9 6.26316 9C7.31804 9 8.0699 9.57671 8.4159 10.3112C8.74776 11.0157 8.72248 11.8955 8.24792 12.5836C7.96884 12.9883 7.67972 13.3637 7.38257 13.7062C8.30364 14.2719 9.40108 14.6 10.5789 14.6C13.8345 14.6 16.4737 12.0928 16.4737 9C16.4737 8.50804 16.4071 8.03191 16.2824 7.57884L16.1612 7.1387L16.5354 6.8548C17.1407 6.39556 17.5263 5.69079 17.5263 4.9C17.5263 3.51929 16.3481 2.4 14.8947 2.4C14.0623 2.4 13.3205 2.76636 12.8371 3.34136L12.5382 3.69683L12.0749 3.58174C11.598 3.46327 11.0968 3.4 10.5789 3.4C10.0611 3.4 9.55991 3.46327 9.08299 3.58174L8.61969 3.69682L8.32084 3.34135C7.83743 2.76636 7.09557 2.4 6.26316 2.4C4.80978 2.4 3.63158 3.51929 3.63158 4.9C3.63158 5.69079 4.01722 6.39555 4.62248 6.8548C4.94046 7.09606 4.99235 7.53652 4.73839 7.8386C4.48442 8.14068 4.02078 8.18998 3.7028 7.94871C2.76247 7.23524 2.15789 6.13446 2.15789 4.9ZM6.25429 12.8055C6.50731 12.5131 6.76193 12.1837 7.01524 11.8164C7.18957 11.5636 7.21691 11.1934 7.07076 10.8831C6.93875 10.6028 6.68196 10.4 6.26316 10.4C5.89811 10.4 5.63505 10.5729 5.49143 10.8291C5.34618 11.0881 5.31026 11.4649 5.51374 11.8663C5.72604 12.2041 5.9746 12.5188 6.25429 12.8055Z" fill="white" stroke="white" stroke-miterlimit="10" stroke-linecap="round"/>
</svg>
