<svg width="116" height="35" viewBox="0 0 116 35" fill="none" xmlns="http://www.w3.org/2000/svg">
<path fill-rule="evenodd" clip-rule="evenodd" d="M2.58614 9.1C2.58614 4.0742 6.69126 0 11.7552 0C14.2741 0 16.5562 1.00947 18.2118 2.63884C19.2426 2.43826 20.3068 2.33333 21.3944 2.33333C22.482 2.33333 23.5463 2.43826 24.5771 2.63884C26.2327 1.00947 28.5148 0 31.0337 0C36.0976 0 40.2027 4.07421 40.2027 9.1C40.2027 11.5999 39.1856 13.8649 37.5438 15.508C37.7459 16.531 37.8517 17.5873 37.8517 18.6667C37.8517 27.6873 30.4835 35 21.3944 35C17.8792 35 14.6221 33.9059 11.9493 32.0436C10.8373 33.0216 9.69269 33.7792 8.53357 34.2806C7.15829 34.8756 5.72149 35.1258 4.30114 34.8991C2.87053 34.6707 1.57962 33.9776 0.482022 32.8883C-0.160674 32.2504 -0.160674 31.2162 0.482022 30.5784C1.12472 29.9405 2.16673 29.9405 2.80943 30.5784C3.47511 31.2391 4.15318 31.5668 4.82382 31.6739C5.5047 31.7825 6.30138 31.6828 7.21836 31.2861C7.91863 30.9831 8.66265 30.5174 9.4319 29.8835C8.5886 28.998 7.84421 28.0191 7.21624 26.9642L7.18693 26.9149L7.16116 26.8638C6.23144 25.0183 6.26685 23.0007 7.12644 21.3989C7.99523 19.7799 9.674 18.6667 11.7552 18.6667C14.1112 18.6667 15.7905 20.0123 16.5633 21.7262C17.3045 23.3701 17.248 25.4228 16.1881 27.0284C15.5648 27.9726 14.9191 28.8487 14.2554 29.6478C16.3126 30.9678 18.7637 31.7333 21.3944 31.7333C28.6657 31.7333 34.5602 25.8832 34.5602 18.6667C34.5602 17.5188 34.4115 16.4078 34.1329 15.3506L33.8624 14.3236L34.6981 13.6612C36.0499 12.5896 36.9113 10.9452 36.9113 9.1C36.9113 5.87834 34.2798 3.26667 31.0337 3.26667C29.1745 3.26667 27.5176 4.12151 26.4379 5.46316L25.7704 6.29259L24.7356 6.02406C23.6704 5.74763 22.551 5.6 21.3944 5.6C20.2378 5.6 19.1184 5.74762 18.0532 6.02406L17.0185 6.29259L16.351 5.46316C15.2713 4.12151 13.6144 3.26667 11.7552 3.26667C8.50908 3.26667 5.87759 5.87834 5.87759 9.1C5.87759 10.9452 6.73891 12.5896 8.09075 13.6612C8.80094 14.2241 8.91684 15.2519 8.34962 15.9567C7.7824 16.6616 6.74685 16.7766 6.03666 16.2137C3.93645 14.5489 2.58614 11.9804 2.58614 9.1ZM11.7354 27.5462C12.3005 26.8639 12.8692 26.0952 13.4349 25.2382C13.8243 24.6484 13.8854 23.7845 13.5589 23.0605C13.2641 22.4066 12.6906 21.9333 11.7552 21.9333C10.9399 21.9333 10.3523 22.3368 10.0315 22.9345C9.70713 23.539 9.62689 24.4182 10.0814 25.3548C10.5555 26.143 11.1107 26.8772 11.7354 27.5462Z" fill="#270E82"/>
<path d="M62.4106 8.43018V24.5945H59.5047V17.5794H51.2182V24.5945H48.335V8.43018H51.2182V15.1956H59.5047V8.43018H62.4106Z" fill="black"/>
<path d="M76.6773 13.1296V24.5945H73.8849V22.7556C73.5368 23.3913 73.0373 23.8907 72.3865 24.254C71.7357 24.6021 70.9941 24.7761 70.1617 24.7761C69.1627 24.7761 68.2773 24.534 67.5054 24.0496C66.7335 23.5653 66.1357 22.8767 65.7119 21.9837C65.2881 21.0907 65.0763 20.054 65.0763 18.8734C65.0763 17.6929 65.2881 16.6486 65.7119 15.7404C66.1508 14.8172 66.7563 14.1059 67.5281 13.6064C68.3 13.0918 69.1779 12.8345 70.1617 12.8345C70.9941 12.8345 71.7357 13.0161 72.3865 13.3794C73.0373 13.7275 73.5368 14.2194 73.8849 14.855V13.1296H76.6773ZM70.9335 22.5513C71.8719 22.5513 72.5984 22.2259 73.113 21.575C73.6276 20.9242 73.8849 20.0086 73.8849 18.828C73.8849 17.6172 73.6276 16.6864 73.113 16.0356C72.5984 15.3848 71.8644 15.0594 70.9108 15.0594C69.9725 15.0594 69.2384 15.3999 68.7087 16.081C68.1941 16.7469 67.9368 17.6777 67.9368 18.8734C67.9368 20.054 68.1941 20.9621 68.7087 21.5977C69.2384 22.2334 69.98 22.5513 70.9335 22.5513Z" fill="black"/>
<path d="M90.62 13.1523L85.6027 24.5945H83.1281L78.1789 13.1523H81.153L84.4448 21.3707L87.8049 13.1523H90.62Z" fill="black"/>
<path d="M101.93 19.0096H94.0295C94.09 20.2356 94.3927 21.1437 94.9376 21.734C95.4976 22.3091 96.3224 22.5967 97.4122 22.5967C98.6684 22.5967 99.8338 22.188 100.908 21.3707L101.726 23.3231C101.181 23.7621 100.507 24.1177 99.7051 24.3902C98.9181 24.6475 98.116 24.7761 97.2987 24.7761C95.4219 24.7761 93.9462 24.2464 92.8716 23.1869C91.797 22.1275 91.2597 20.6745 91.2597 18.828C91.2597 17.6626 91.4943 16.6259 91.9635 15.7177C92.4327 14.8096 93.0911 14.1059 93.9387 13.6064C94.7862 13.0918 95.7473 12.8345 96.8219 12.8345C98.396 12.8345 99.637 13.3491 100.545 14.3783C101.468 15.3923 101.93 16.7923 101.93 18.5783V19.0096ZM96.89 14.8777C96.1333 14.8777 95.5127 15.1048 95.0284 15.5588C94.5592 15.9977 94.2565 16.641 94.1203 17.4886H99.4554C99.3646 16.6259 99.0997 15.975 98.6608 15.5361C98.237 15.0972 97.6468 14.8777 96.89 14.8777Z" fill="black"/>
<path d="M110.894 12.8345C113.634 12.8345 115.003 14.4086 115.003 17.5567V24.5945H112.166V17.6929C112.166 16.7848 111.992 16.1264 111.643 15.7177C111.295 15.294 110.758 15.0821 110.031 15.0821C109.169 15.0821 108.473 15.3621 107.943 15.9221C107.413 16.4669 107.148 17.1934 107.148 18.1015V24.5945H104.333V16.3761C104.333 15.1653 104.273 14.0831 104.152 13.1296H106.808L107.012 15.014C107.406 14.3177 107.935 13.7804 108.601 13.4021C109.282 13.0237 110.047 12.8345 110.894 12.8345Z" fill="black"/>
</svg>
