<svg width="132" height="41" viewBox="0 0 132 41" fill="none" xmlns="http://www.w3.org/2000/svg">
<path fill-rule="evenodd" clip-rule="evenodd" d="M2.96832 10.4448C2.96832 4.6763 7.68011 0 13.4924 0C16.3835 0 19.0029 1.15865 20.9031 3.02881C22.0863 2.79859 23.3078 2.67816 24.5561 2.67816C25.8044 2.67816 27.026 2.79859 28.2091 3.02881C30.1094 1.15865 32.7288 0 35.6199 0C41.4322 0 46.144 4.6763 46.144 10.4448C46.144 13.3142 44.9765 15.9138 43.0922 17.7998C43.3241 18.974 43.4455 20.1864 43.4455 21.4253C43.4455 31.779 34.9884 40.1724 24.5561 40.1724C20.5214 40.1724 16.7829 38.9166 13.7152 36.7791C12.4389 37.9016 11.1251 38.7711 9.79469 39.3467C8.21616 40.0296 6.56703 40.3168 4.93677 40.0565C3.29475 39.7944 1.81305 38.9989 0.553256 37.7486C-0.184419 37.0165 -0.184419 35.8295 0.553256 35.0973C1.29093 34.3652 2.48694 34.3652 3.22461 35.0973C3.98867 35.8557 4.76695 36.2318 5.53669 36.3547C6.3182 36.4794 7.23262 36.3649 8.2851 35.9096C9.08886 35.5619 9.94284 35.0274 10.8258 34.2998C9.85784 33.2834 9.00345 32.1598 8.28267 30.949L8.24903 30.8925L8.21945 30.8338C7.15234 28.7156 7.19298 26.3998 8.1796 24.5612C9.17678 22.703 11.1036 21.4253 13.4924 21.4253C16.1966 21.4253 18.1241 22.9698 19.0111 24.937C19.8618 26.8238 19.797 29.1799 18.5804 31.0228C17.865 32.1065 17.1238 33.112 16.3621 34.0292C18.7233 35.5443 21.5366 36.423 24.5561 36.423C32.902 36.423 39.6676 29.7083 39.6676 21.4253C39.6676 20.1077 39.4969 18.8326 39.1772 17.6192L38.8666 16.4404L39.8259 15.6801C41.3775 14.4502 42.3661 12.5627 42.3661 10.4448C42.3661 6.74705 39.3457 3.74942 35.6199 3.74942C33.486 3.74942 31.5842 4.73059 30.3449 6.27052L29.5788 7.22253L28.3911 6.91431C27.1685 6.59702 25.8837 6.42758 24.5561 6.42758C23.2286 6.42758 21.9438 6.59702 20.7212 6.91431L19.5335 7.22253L18.7674 6.27052C17.5281 4.73059 15.6263 3.74942 13.4924 3.74942C9.76657 3.74942 6.74619 6.74705 6.74619 10.4448C6.74619 12.5627 7.73481 14.4502 9.28642 15.6801C10.1016 16.3262 10.2346 17.5059 9.58355 18.3149C8.9325 19.1239 7.74392 19.2559 6.92877 18.6098C4.51819 16.699 2.96832 13.7509 2.96832 10.4448ZM13.4697 31.6171C14.1183 30.834 14.771 29.9517 15.4204 28.968C15.8673 28.291 15.9374 27.2994 15.5627 26.4685C15.2243 25.7179 14.566 25.1747 13.4924 25.1747C12.5566 25.1747 11.8822 25.6377 11.514 26.3238C11.1417 27.0177 11.0496 28.0268 11.5712 29.1018C12.1154 30.0064 12.7526 30.8492 13.4697 31.6171Z" fill="#270E82"/>
<path d="M71.6343 9.67615V28.2293H68.2989V20.1774H58.7879V28.2293H55.4785V9.67615H58.7879V17.4414H68.2989V9.67615H71.6343Z" fill="black"/>
<path d="M88.0094 15.0701V28.2293H84.8043V26.1186C84.4047 26.8482 83.8315 27.4215 83.0845 27.8384C82.3375 28.238 81.4863 28.4377 80.5308 28.4377C79.3843 28.4377 78.368 28.1598 77.4821 27.6039C76.5961 27.048 75.9099 26.2576 75.4235 25.2326C74.9371 24.2077 74.6939 23.0177 74.6939 21.6627C74.6939 20.3077 74.9371 19.1091 75.4235 18.0667C75.9273 17.0071 76.6222 16.1906 77.5081 15.6173C78.3941 15.0267 79.4016 14.7314 80.5308 14.7314C81.4863 14.7314 82.3375 14.9398 83.0845 15.3567C83.8315 15.7563 84.4047 16.3209 84.8043 17.0505V15.0701H88.0094ZM81.4168 25.8841C82.4938 25.8841 83.3277 25.5106 83.9183 24.7636C84.509 24.0166 84.8043 22.9656 84.8043 21.6106C84.8043 20.2209 84.509 19.1525 83.9183 18.4055C83.3277 17.6585 82.4851 17.285 81.3907 17.285C80.3137 17.285 79.4711 17.6759 78.8631 18.4576C78.2725 19.222 77.9772 20.2903 77.9772 21.6627C77.9772 23.0177 78.2725 24.06 78.8631 24.7897C79.4711 25.5193 80.3224 25.8841 81.4168 25.8841Z" fill="black"/>
<path d="M104.013 15.0962L98.2538 28.2293H95.4135L89.7329 15.0962H93.1464L96.9248 24.5291L100.781 15.0962H104.013Z" fill="black"/>
<path d="M116.994 21.8191H107.926C107.995 23.2262 108.343 24.2685 108.968 24.946C109.611 25.6061 110.558 25.9362 111.808 25.9362C113.25 25.9362 114.588 25.4672 115.821 24.5291L116.759 26.77C116.134 27.2738 115.361 27.6821 114.44 27.9948C113.537 28.2901 112.616 28.4377 111.678 28.4377C109.524 28.4377 107.83 27.8297 106.597 26.6137C105.364 25.3977 104.747 23.73 104.747 21.6106C104.747 20.273 105.016 19.083 105.555 18.0407C106.093 16.9984 106.849 16.1906 107.822 15.6173C108.794 15.0267 109.898 14.7314 111.131 14.7314C112.938 14.7314 114.362 15.322 115.404 16.5033C116.464 17.6672 116.994 19.2741 116.994 21.324V21.8191ZM111.209 17.0766C110.341 17.0766 109.628 17.3371 109.072 17.8583C108.534 18.3621 108.186 19.1004 108.03 20.0732H114.154C114.049 19.083 113.745 18.336 113.242 17.8322C112.755 17.3284 112.078 17.0766 111.209 17.0766Z" fill="black"/>
<path d="M127.283 14.7314C130.427 14.7314 131.999 16.538 131.999 20.1514V28.2293H128.742V20.3077C128.742 19.2654 128.542 18.5097 128.143 18.0407C127.743 17.5543 127.127 17.3111 126.293 17.3111C125.303 17.3111 124.503 17.6325 123.895 18.2752C123.287 18.9006 122.983 19.7344 122.983 20.7768V28.2293H119.752V18.7964C119.752 17.4066 119.683 16.1645 119.544 15.0701H122.593L122.827 17.2329C123.279 16.4338 123.887 15.8171 124.651 15.3828C125.433 14.9485 126.31 14.7314 127.283 14.7314Z" fill="black"/>
</svg>
